<svg width="30" height="30" viewBox="0 0 30 30" fill="none" xmlns="http://www.w3.org/2000/svg">
<path d="M21.0001 10.16C20.9401 10.15 20.8701 10.15 20.8101 10.16C19.4301 10.11 18.3301 8.98 18.3301 7.58C18.3301 6.15 19.4801 5 20.9101 5C22.3401 5 23.4901 6.16 23.4901 7.58C23.4801 8.98 22.3801 10.11 21.0001 10.16Z" stroke="#A9ADBD" stroke-width="1.5" stroke-linecap="round" stroke-linejoin="round"/>
<path d="M19.9695 17.4399C21.3395 17.6699 22.8495 17.4299 23.9095 16.7199C25.3195 15.7799 25.3195 14.2399 23.9095 13.2999C22.8395 12.5899 21.3095 12.3499 19.9395 12.5899" stroke="#A9ADBD" stroke-width="1.5" stroke-linecap="round" stroke-linejoin="round"/>
<path d="M8.96852 10.16C9.02852 10.15 9.09852 10.15 9.15852 10.16C10.5385 10.11 11.6385 8.98 11.6385 7.58C11.6385 6.15 10.4885 5 9.05852 5C7.62852 5 6.47852 6.16 6.47852 7.58C6.48852 8.98 7.58852 10.11 8.96852 10.16Z" stroke="#A9ADBD" stroke-width="1.5" stroke-linecap="round" stroke-linejoin="round"/>
<path d="M9.99945 17.4399C8.62945 17.6699 7.11945 17.4299 6.05945 16.7199C4.64945 15.7799 4.64945 14.2399 6.05945 13.2999C7.12945 12.5899 8.65945 12.3499 10.0295 12.5899" stroke="#A9ADBD" stroke-width="1.5" stroke-linecap="round" stroke-linejoin="round"/>
<path d="M15.0001 17.6288C14.9401 17.6188 14.8701 17.6188 14.8101 17.6288C13.4301 17.5788 12.3301 16.4488 12.3301 15.0488C12.3301 13.6188 13.4801 12.4688 14.9101 12.4688C16.3401 12.4688 17.4901 13.6288 17.4901 15.0488C17.4801 16.4488 16.3801 17.5888 15.0001 17.6288Z" stroke="#A9ADBD" stroke-width="1.5" stroke-linecap="round" stroke-linejoin="round"/>
<path d="M12.0907 20.7786C10.6807 21.7186 10.6807 23.2586 12.0907 24.1986C13.6907 25.2686 16.3107 25.2686 17.9107 24.1986C19.3207 23.2586 19.3207 21.7186 17.9107 20.7786C16.3207 19.7186 13.6907 19.7186 12.0907 20.7786Z" stroke="#A9ADBD" stroke-width="1.5" stroke-linecap="round" stroke-linejoin="round"/>
</svg>
